# xmcd
#
# Track frame offsets:
#	182
#	15765
#	28815
#	44265
#	56490
#	73590
#	90240
#	105240
#	122715
#	134490
#	155490
#	167040
#	178890
#	199140
#	212115
#	231015
#	244890
#	258240
#	272790
#	285390
#	296265
#	308865
#
# Disc length: 4244 seconds
#
# Revision: 1
# Processed by: cddbd v1.4PL0 Copyright (c) Steve Scherf et al.
# Submitted via: audiograbber 1.82.02
#
DISCID=32109216
DTITLE=Various Artist - Taking The World To Outback Kids 97 Muster Disk2
DYEAR=1900
DGENRE=
TTITLE0=John Williamson - Sydney 2000
TTITLE1=Ian McNamara - Just One Time
TTITLE2=Kristina Olsen - Hurry On Home
TTITLE3=Lindsay Butler - Desert Dreaming
TTITLE4=Darren Coggan - Let's Pretend
TTITLE5=Shaza Leigh - Rainy Day Blues
TTITLE6=Mitchell Shadlow - Bound To Cry
TTITLE7=Brian Letton - This Is It
TTITLE8=Greg Champion - Longyard on a Saturday Night
TTITLE9=Reg Poole - Buckles and Sashes
TTITLE10=Owen Blundell - Hard Hard Times
TTITLE11=Terry Gordon - I Just Can't Get Enough of Old George Jones
TTITLE12=Rough Red - Man On The Land
TTITLE13=Chris and Jeanette Jones - I Will Stand By You
TTITLE14=Kathy Raydings - In The Outback of Australia
TTITLE15=Bruce McCumstie - Long Time Coming
TTITLE16=Neil Duddy - The Muster Song
TTITLE17=The Midnight Travellers - The Woman
TTITLE18=Welcome Stangers - Don't Lead With Your Heart
TTITLE19=Grant Luhrs - Let's Get A Cow
TTITLE20=Jade Hurley - The Devil In Me
TTITLE21=Pixie Jenkins - Bushmans Rodeo
EXTD=
EXTT0=
EXTT1=
EXTT2=
EXTT3=
EXTT4=
EXTT5=
EXTT6=
EXTT7=
EXTT8=
EXTT9=
EXTT10=
EXTT11=
EXTT12=
EXTT13=
EXTT14=
EXTT15=
EXTT16=
EXTT17=
EXTT18=
EXTT19=
EXTT20=
EXTT21=
PLAYORDER=
